<svg xmlns="http://www.w3.org/2000/svg" viewBox="0 0 512 512">
  <defs>
    <linearGradient id="bg" x1="0%" y1="0%" x2="100%" y2="100%">
      <stop offset="0%" stop-color="#0f766e"/>
      <stop offset="100%" stop-color="#0d9488"/>
    </linearGradient>
  </defs>
  <rect width="512" height="512" rx="96" fill="url(#bg)"/>
  <g transform="translate(106,136)" fill="none" stroke="#ffffff" stroke-width="16" stroke-linecap="round" stroke-linejoin="round">
    <circle cx="150" cy="120" r="52" fill="#ffffff"/>
    <path d="M0 220 L0 190 Q0 160 30 160 L270 160 Q300 160 300 190 L300 220" />
    <path d="M0 280 L0 250" />
    <path d="M150 280 L150 250" />
    <path d="M300 280 L300 250" />
    <circle cx="246" cy="120" r="14" fill="#ffffff"/>
    <line x1="246" y1="106" x2="246" y2="66" />
    <line x1="246" y1="66" x2="210" y2="48" />
    <line x1="246" y1="66" x2="282" y2="48" />
    <path d="M246 76 L270 76" stroke-width="12" />
  </g>
  <g transform="translate(60,60)" fill="#ffffff" opacity="0.18">
    <circle cx="0" cy="0" r="32" />
    <circle cx="452" cy="392" r="48" />
    <circle cx="420" cy="40" r="18" />
  </g>
</svg>
